<svg width="21" height="20" viewBox="0 0 21 20" fill="none" xmlns="http://www.w3.org/2000/svg">
<path d="M11.3257 6.21255C11.5018 6.04491 11.7361 5.95224 11.9792 5.95408C12.2223 5.95592 12.4552 6.05213 12.6287 6.22241C12.8023 6.3927 12.9028 6.62373 12.9093 6.86677C12.9157 7.10981 12.8275 7.34584 12.6632 7.52505L7.67567 13.7626C7.58991 13.8549 7.4864 13.9291 7.37134 13.9805C7.25627 14.032 7.13201 14.0597 7.00599 14.062C6.87996 14.0644 6.75476 14.0413 6.63787 13.9941C6.52098 13.9469 6.4148 13.8767 6.32567 13.7876L3.01817 10.4801C2.92606 10.3942 2.85219 10.2907 2.80095 10.1757C2.74971 10.0607 2.72215 9.93659 2.71993 9.81071C2.71771 9.68483 2.74087 9.55979 2.78802 9.44306C2.83517 9.32632 2.90535 9.22028 2.99438 9.13126C3.0834 9.04223 3.18944 8.97205 3.30618 8.9249C3.42291 8.87775 3.54795 8.85459 3.67383 8.85681C3.7997 8.85904 3.92385 8.88659 4.03885 8.93783C4.15384 8.98907 4.25735 9.06295 4.34317 9.15505L6.96067 11.7713L11.3007 6.24005L11.3257 6.21255ZM10.1757 12.6376L11.3257 13.7876C11.4148 13.8765 11.5209 13.9466 11.6377 13.9936C11.7544 14.0407 11.8795 14.0637 12.0054 14.0614C12.1312 14.059 12.2553 14.0314 12.3703 13.98C12.4852 13.9287 12.5887 13.8547 12.6744 13.7626L17.6644 7.52505C17.7541 7.43656 17.8249 7.3309 17.8728 7.2144C17.9207 7.0979 17.9447 6.97294 17.9432 6.84698C17.9417 6.72102 17.9149 6.59666 17.8643 6.4813C17.8137 6.36595 17.7404 6.26197 17.6487 6.17559C17.557 6.08921 17.4489 6.02218 17.3307 5.97852C17.2126 5.93486 17.0868 5.91546 16.961 5.92148C16.8352 5.9275 16.7118 5.95881 16.5984 6.01354C16.4849 6.06828 16.3837 6.14532 16.3007 6.24005L11.9594 11.7713L11.3532 11.1638L10.1757 12.6376Z" fill="#FFD700"/>
</svg>
