<svg width="41" height="41" viewBox="0 0 41 41" fill="none" xmlns="http://www.w3.org/2000/svg">
<path d="M20.5 3.80457C29.705 3.80457 37.1667 11.2662 37.1667 20.4712C37.1667 29.6762 29.705 37.1379 20.5 37.1379C11.295 37.1379 3.83333 29.6762 3.83333 20.4712C3.83333 11.2662 11.295 3.80457 20.5 3.80457ZM26.5 12.4712C26.3249 12.3399 26.1257 12.2444 25.9136 12.19C25.7016 12.1357 25.481 12.1237 25.2643 12.1546C25.0476 12.1856 24.8392 12.2589 24.6508 12.3704C24.4625 12.482 24.298 12.6295 24.1667 12.8046L20.5 17.6929L16.8333 12.8046C16.702 12.6295 16.5375 12.482 16.3492 12.3704C16.1608 12.2589 15.9524 12.1856 15.7357 12.1546C15.519 12.1237 15.2984 12.1357 15.0864 12.19C14.8743 12.2444 14.6751 12.3399 14.5 12.4712C14.3249 12.6026 14.1774 12.7671 14.0659 12.9554C13.9544 13.1437 13.881 13.3522 13.8501 13.5689C13.8191 13.7855 13.8312 14.0062 13.8855 14.2182C13.9398 14.4302 14.0353 14.6295 14.1667 14.8046L18.4167 20.4712L14.1667 26.1379C13.9014 26.4915 13.7876 26.936 13.8501 27.3736C13.9126 27.8112 14.1464 28.206 14.5 28.4712C14.8536 28.7364 15.2981 28.8503 15.7357 28.7878C16.1733 28.7253 16.5681 28.4915 16.8333 28.1379L20.5 23.2496L24.1667 28.1379C24.4319 28.4915 24.8267 28.7253 25.2643 28.7878C25.7019 28.8503 26.1464 28.7364 26.5 28.4712C26.8536 28.206 27.0874 27.8112 27.1499 27.3736C27.2124 26.936 27.0985 26.4915 26.8333 26.1379L22.5833 20.4712L26.8333 14.8046C26.9646 14.6295 27.0602 14.4302 27.1145 14.2182C27.1688 14.0062 27.1809 13.7855 27.1499 13.5689C27.119 13.3522 27.0456 13.1437 26.9341 12.9554C26.8226 12.7671 26.6751 12.6026 26.5 12.4712Z" fill="#CF0B0B"/>
</svg>
